<svg width="32" height="32" viewBox="0 0 32 32" fill="none" xmlns="http://www.w3.org/2000/svg">
<g filter="url(#filter0_i_618_2)">
<path fill-rule="evenodd" clip-rule="evenodd" d="M6.68911 2.98668C9.31199 1.10669 12.5268 0 16 0C24.8366 0 32 7.16344 32 16C32 19.4087 30.934 22.5685 29.1173 25.1641L25.2146 2.98663H18.132L13.6093 28.2026H18.9426L19.668 23.552H23.3373L24.1053 28.2026H26.3492C23.5593 30.5712 19.9465 32 16 32C12.0535 32 8.4408 30.5712 5.65084 28.2027H7.72267V17.1093H13.184V13.2267H7.72267V6.48535H14.1653V2.98668H6.68911ZM2.56 7.3151C0.940379 9.81634 0 12.7984 0 16C0 19.2016 0.940379 22.1837 2.56 24.6849V7.3151ZM19.7533 21.0773H23.2946L21.5453 7.38129L19.7533 21.0773Z" fill="#F35E3E"/>
</g>
<defs>
<filter id="filter0_i_618_2" x="0" y="0" width="32" height="34.56" filterUnits="userSpaceOnUse" color-interpolation-filters="sRGB">
<feFlood flood-opacity="0" result="BackgroundImageFix"/>
<feBlend mode="normal" in="SourceGraphic" in2="BackgroundImageFix" result="shape"/>
<feColorMatrix in="SourceAlpha" type="matrix" values="0 0 0 0 0 0 0 0 0 0 0 0 0 0 0 0 0 0 127 0" result="hardAlpha"/>
<feOffset dy="2.56"/>
<feGaussianBlur stdDeviation="1.28"/>
<feComposite in2="hardAlpha" operator="arithmetic" k2="-1" k3="1"/>
<feColorMatrix type="matrix" values="0 0 0 0 0 0 0 0 0 0 0 0 0 0 0 0 0 0 0.25 0"/>
<feBlend mode="normal" in2="shape" result="effect1_innerShadow_618_2"/>
</filter>
</defs>
</svg>
