<svg id="visual" viewBox="0 0 900 450" width="900" height="450" xmlns="http://www.w3.org/2000/svg" xmlns:xlink="http://www.w3.org/1999/xlink" version="1.1"><path d="M0 36L21.5 37.2C43 38.3 86 40.7 128.8 40.7C171.7 40.7 214.3 38.3 257.2 39.5C300 40.7 343 45.3 385.8 49.3C428.7 53.3 471.3 56.7 514.2 58.7C557 60.7 600 61.3 642.8 56.5C685.7 51.7 728.3 41.3 771.2 38.8C814 36.3 857 41.7 878.5 44.3L900 47L900 0L878.5 0C857 0 814 0 771.2 0C728.3 0 685.7 0 642.8 0C600 0 557 0 514.2 0C471.3 0 428.7 0 385.8 0C343 0 300 0 257.2 0C214.3 0 171.7 0 128.8 0C86 0 43 0 21.5 0L0 0Z" fill="#3D3C42" stroke-linecap="round" stroke-linejoin="miter"></path></svg>