<svg width="12" height="12" viewBox="0 0 12 12" fill="none" xmlns="http://www.w3.org/2000/svg">
<path d="M5.99993 7.01372C6.51456 7.01372 6.93175 6.59653 6.93175 6.0819C6.93175 5.56727 6.51456 5.15009 5.99993 5.15009C5.4853 5.15009 5.06812 5.56727 5.06812 6.0819C5.06812 6.59653 5.4853 7.01372 5.99993 7.01372Z" fill="white"/>
<path d="M6 7.9924C8.76142 7.9924 11 7.13739 11 6.08269C11 5.02798 8.76142 4.17297 6 4.17297C3.23858 4.17297 1 5.02798 1 6.08269C1 7.13739 3.23858 7.9924 6 7.9924Z" stroke="white" stroke-width="0.454545"/>
<path d="M4.34651 7.03653C5.72705 9.4277 7.58639 10.9388 8.49946 10.4116C9.41252 9.88446 9.03356 7.51868 7.65302 5.12751C6.27247 2.73634 4.41313 1.22526 3.50007 1.75242C2.587 2.27958 2.96596 4.64535 4.34651 7.03653Z" stroke="white" stroke-width="0.454545"/>
<path d="M4.34668 5.12731C2.96597 7.51838 2.5869 9.88403 3.5 10.4111C4.4131 10.9382 6.27261 9.42716 7.65332 7.03609C9.03403 4.64501 9.4131 2.27937 8.5 1.75227C7.58689 1.22518 5.72739 2.73623 4.34668 5.12731Z" stroke="white" stroke-width="0.454545"/>
</svg>
