<svg id="visual" viewBox="0 0 900 450" width="900" height="450" xmlns="http://www.w3.org/2000/svg" xmlns:xlink="http://www.w3.org/1999/xlink" version="1.1"><path d="M0 34L21.5 35C43 36 86 38 128.8 43.3C171.7 48.7 214.3 57.3 257.2 60.3C300 63.3 343 60.7 385.8 53.8C428.7 47 471.3 36 514.2 33.5C557 31 600 37 642.8 42.8C685.7 48.7 728.3 54.3 771.2 54.7C814 55 857 50 878.5 47.5L900 45L900 0L878.5 0C857 0 814 0 771.2 0C728.3 0 685.7 0 642.8 0C600 0 557 0 514.2 0C471.3 0 428.7 0 385.8 0C343 0 300 0 257.2 0C214.3 0 171.7 0 128.8 0C86 0 43 0 21.5 0L0 0Z" fill="#3D3C42" stroke-linecap="round" stroke-linejoin="miter"></path></svg>