<svg id="visual" viewBox="0 0 900 450" width="900" height="450" xmlns="http://www.w3.org/2000/svg" xmlns:xlink="http://www.w3.org/1999/xlink" version="1.1"><path d="M0 386L21.5 387C43 388 86 390 128.8 396.2C171.7 402.3 214.3 412.7 257.2 414.3C300 416 343 409 385.8 407.5C428.7 406 471.3 410 514.2 412.5C557 415 600 416 642.8 416.2C685.7 416.3 728.3 415.7 771.2 410.3C814 405 857 395 878.5 390L900 385L900 451L878.5 451C857 451 814 451 771.2 451C728.3 451 685.7 451 642.8 451C600 451 557 451 514.2 451C471.3 451 428.7 451 385.8 451C343 451 300 451 257.2 451C214.3 451 171.7 451 128.8 451C86 451 43 451 21.5 451L0 451Z" fill="#3D3C42" stroke-linecap="round" stroke-linejoin="miter"></path></svg>